<svg xmlns="http://www.w3.org/2000/svg" width="1200" height="560" viewBox="0 0 1200 560" role="img" aria-labelledby="t d">
  <title id="t">Resultado esperado del laboratorio</title><desc id="d">Interfaz con buscador, tabla de empleados, detalle y formulario.</desc>
  <rect width="1200" height="560" rx="28" fill="#f5f7fb"/>
  <rect x="45" y="38" width="1110" height="484" rx="18" fill="#fff" stroke="#d7ddea" stroke-width="3"/>
  <text x="88" y="92" font-family="Arial" font-size="31" font-weight="700" fill="#17213a">EQUIPO ANGULAR</text>
  <rect x="88" y="122" width="480" height="48" rx="9" fill="#fff" stroke="#8793a8" stroke-width="2"/>
  <text x="108" y="153" font-family="Arial" font-size="18" fill="#697386">Buscar por nombre</text>
  <rect x="88" y="201" width="650" height="48" fill="#17213a"/>
  <text x="110" y="232" font-family="Arial" font-size="18" font-weight="700" fill="#fff">Nombre        Rol           Ingreso       Salario</text>
  <g font-family="Arial" font-size="18" fill="#273248">
    <text x="110" y="286">Ana Torres      💻 Desarrollo    12/02/2024    $42,000</text>
    <text x="110" y="332">Luis Vega       🎨 Diseño        18/09/2023    $38,000</text>
    <text x="110" y="378" fill="#788295">Marta Ruiz      ✅ QA            03/06/2022    $40,000</text>
  </g>
  <line x1="88" y1="299" x2="738" y2="299" stroke="#d7ddea"/><line x1="88" y1="345" x2="738" y2="345" stroke="#d7ddea"/>
  <rect x="785" y="122" width="315" height="315" rx="14" fill="#eef3ff"/>
  <text x="815" y="165" font-family="Arial" font-size="23" font-weight="700" fill="#17213a">Nuevo empleado</text>
  <g fill="#fff" stroke="#8793a8" stroke-width="2"><rect x="815" y="190" width="255" height="44" rx="7"/><rect x="815" y="255" width="255" height="44" rx="7"/><rect x="815" y="320" width="255" height="44" rx="7"/></g>
  <text x="830" y="218" font-family="Arial" font-size="17" fill="#697386">Nombre</text><text x="830" y="283" font-family="Arial" font-size="17" fill="#697386">Rol</text><text x="830" y="348" font-family="Arial" font-size="17" fill="#697386">Salario</text>
  <rect x="815" y="384" width="180" height="44" rx="9" fill="#5b4bdb"/><text x="905" y="412" text-anchor="middle" font-family="Arial" font-size="17" font-weight="700" fill="#fff">Agregar empleado</text>
  <text x="600" y="548" text-anchor="middle" font-family="Arial" font-size="18" fill="#405064">La apariencia exacta puede variar; deben conservarse estos bloques funcionales.</text>
</svg>
